<svg version="1.1" id="Layer_1" xmlns="http://www.w3.org/2000/svg" xmlns:xlink="http://www.w3.org/1999/xlink" x="0px" y="0px"
	 width="100%" viewBox="0 0 1024 1024" enable-background="new 0 0 1024 1024" xml:space="preserve">
<path fill="#000000" opacity="1.000000" stroke="none" 
	d="
M291.999939,929.325500 
	C258.835815,929.319885 226.171631,929.351685 193.507645,929.287720 
	C182.127594,929.265503 173.099289,922.765869 170.986206,913.157349 
	C169.811539,907.816040 171.174393,902.565186 172.206497,897.363831 
	C182.137863,847.314392 211.939346,812.301208 255.394562,787.674316 
	C277.076569,775.386658 300.815338,769.021606 324.897583,763.638184 
	C333.484436,761.718689 342.135956,759.976990 349.815338,755.252625 
	C358.124664,750.140686 362.158997,742.437622 363.502136,733.112122 
	C364.099274,728.966309 361.602692,727.373657 357.029266,728.929932 
	C348.358398,731.880371 339.535736,734.044861 330.472382,735.526306 
	C306.749512,739.403931 283.755920,736.333618 261.174164,728.909546 
	C243.549957,723.115295 226.733780,715.515930 211.147186,705.387817 
	C207.532532,703.039062 204.091873,700.340698 200.899139,697.441895 
	C194.632568,691.752563 193.956650,686.338013 198.627747,679.293030 
	C201.196289,675.419189 204.275177,671.886902 207.060257,668.153076 
	C236.352982,628.881165 253.726990,584.375854 264.579437,537.015808 
	C266.061890,530.546387 267.259705,524.006836 268.914093,517.583435 
	C269.943787,513.585449 268.252106,512.276001 264.714722,512.305481 
	C251.719864,512.413879 238.721344,512.858459 225.731888,512.663940 
	C203.320404,512.328308 180.764435,513.423279 158.812241,507.302582 
	C153.827988,505.912903 148.992950,504.096802 144.587418,501.317657 
	C125.291168,489.144928 125.451271,466.949799 145.064316,455.328308 
	C156.682678,448.444000 169.088562,443.101868 181.446411,437.696533 
	C212.269455,424.214447 243.960648,412.955078 275.594574,401.623413 
	C291.050995,396.086761 299.375641,386.327332 302.609283,370.336731 
	C310.403381,331.794373 319.062561,293.427216 327.319000,254.977844 
	C329.129700,246.545685 330.763336,238.074448 332.393158,229.604782 
	C334.118805,220.637436 329.870117,212.511398 320.252350,207.061340 
	C306.633484,199.344025 292.848419,191.920715 279.192596,184.267929 
	C258.131958,172.465469 236.560974,161.565781 216.114777,148.675842 
	C212.591309,146.454544 209.087234,144.183060 206.148911,141.188065 
	C200.133469,135.056625 200.700073,128.820679 207.870728,124.154022 
	C216.345886,118.638420 226.205780,117.299088 235.849182,115.754829 
	C257.787109,112.241753 279.767883,108.966156 301.782379,105.969917 
	C321.673004,103.262711 341.625275,101.000740 361.563080,98.650444 
	C370.794586,97.562225 380.041779,96.132111 389.307495,95.905190 
	C409.861145,95.401863 428.042633,101.885780 444.120148,115.028885 
	C484.220917,147.810593 524.590454,180.263519 564.867493,212.829437 
	C601.385376,242.355835 637.908325,271.876068 674.463745,301.355896 
	C683.235840,308.430084 693.138062,310.838593 704.403320,309.110992 
	C712.267883,307.904877 720.332092,308.317657 728.306885,307.807983 
	C749.881409,306.429199 771.508606,305.875824 793.084656,304.515900 
	C809.533752,303.479126 825.965088,302.380585 842.453796,302.667175 
	C849.863464,302.795959 856.984009,304.420288 863.647888,307.672028 
	C878.562988,314.950043 882.715027,331.289246 873.128418,345.644684 
	C865.382202,357.244202 854.349426,365.329926 842.824951,372.766968 
	C819.160828,388.038086 793.080933,398.169342 766.978271,408.234863 
	C760.773010,410.627686 754.580139,413.086060 748.255737,415.123901 
	C744.402893,416.365387 743.346130,417.890137 744.054871,422.271545 
	C750.602234,462.748962 758.605103,502.925354 768.338318,542.750427 
	C778.699402,585.144287 794.958984,625.008057 819.942566,661.033142 
	C824.306213,667.325439 829.177734,673.275330 833.366333,679.676758 
	C838.398376,687.367249 837.782898,691.892029 830.853271,698.053711 
	C819.271606,708.351990 805.696472,715.429504 791.534912,721.457886 
	C775.093262,728.456726 758.101807,733.805420 740.382629,736.042175 
	C718.141113,738.849792 696.255005,736.561218 675.023315,729.049744 
	C673.767944,728.605591 672.554932,727.813660 671.277710,727.704651 
	C668.134338,727.436340 666.067566,728.317505 666.880127,732.247620 
	C669.940613,747.049988 678.843628,756.420715 693.184509,760.705627 
	C710.851318,765.984375 729.043091,769.348816 746.442505,775.648560 
	C783.297974,788.992737 814.513977,809.705566 836.158569,843.211243 
	C849.002075,863.093140 856.894531,884.800598 860.202759,908.189880 
	C861.765686,919.239746 852.904846,928.387146 839.948547,929.270935 
	C838.289062,929.384155 836.616638,929.319336 834.950256,929.319336 
	C654.133484,929.322388 473.316711,929.323730 291.999939,929.325500 
M623.614136,676.120728 
	C633.251831,664.827759 642.033325,652.942688 649.440247,640.032043 
	C670.156555,603.922302 678.881592,564.433289 682.628967,523.506470 
	C682.971008,519.771423 681.783386,517.460327 677.359192,517.397949 
	C675.709045,524.594116 674.092285,531.712891 671.107910,538.408264 
	C659.222229,565.074219 630.593628,584.142639 597.110046,581.491943 
	C577.839050,579.966248 561.096741,572.824036 547.934875,558.912476 
	C530.696289,540.692078 523.906006,518.676758 527.629822,493.690765 
	C534.032471,450.730988 572.108398,424.542694 614.530273,430.090088 
	C640.270081,433.456024 658.953247,447.736115 670.218262,471.317627 
	C671.241089,473.458649 672.247498,475.220581 675.042480,474.286621 
	C678.018738,473.292084 677.364990,471.178986 676.736450,468.990295 
	C674.113098,459.855438 670.691956,451.012909 666.704834,442.406403 
	C658.582336,424.873230 648.239258,408.896545 633.610046,395.971039 
	C631.538635,394.140961 629.785095,393.505432 626.965149,394.743042 
	C589.911438,411.004883 551.697449,424.120178 513.195129,436.446320 
	C459.532379,453.625916 405.058228,467.921692 350.566864,482.146667 
	C346.626648,483.175232 345.183624,484.835327 345.195831,488.949799 
	C345.246338,505.936920 347.044739,522.746765 349.232941,539.565063 
	C352.878571,567.585388 359.810669,594.672729 371.412262,620.466431 
	C388.134552,657.645020 412.187042,688.716736 447.641876,709.876404 
	C478.188721,728.106934 510.782959,734.718018 545.786682,725.688782 
	C576.840881,717.678223 601.658203,699.777893 623.614136,676.120728 
M489.676361,764.251953 
	C487.239594,763.751526 484.798950,763.269104 482.366699,762.747742 
	C465.157074,759.059021 449.039764,752.477234 433.491791,744.358887 
	C427.447571,741.202881 426.946442,741.624084 426.283264,748.165405 
	C425.142334,759.418884 423.426971,770.598755 418.999207,781.104736 
	C417.660522,784.281189 417.869263,786.538025 420.108978,789.192139 
	C426.767120,797.082336 433.047028,805.291992 439.718384,813.170532 
	C453.180145,829.068298 466.788300,844.884583 483.604889,857.417480 
	C496.147247,866.764893 509.660309,872.974365 525.877930,867.596313 
	C530.332947,866.118958 534.610229,864.228882 538.536072,861.726501 
	C568.591797,842.568298 589.870789,814.624695 612.308472,787.842529 
	C613.646484,786.245422 613.122620,784.825806 612.391602,783.252686 
	C609.427979,776.875366 607.685181,770.133789 606.536743,763.223572 
	C605.377014,756.245728 604.234802,749.264893 602.882446,741.056519 
	C585.038696,750.271240 567.310242,757.602417 548.487610,761.874268 
	C529.332886,766.221497 510.018463,767.072510 489.676361,764.251953 
M618.051086,463.413269 
	C588.371826,454.157440 560.525146,473.628143 559.057556,504.448273 
	C557.809875,530.651306 581.452087,555.311829 610.517090,550.196472 
	C630.902222,546.608704 645.984375,529.467407 647.615723,509.791931 
	C649.289551,489.604156 638.136230,471.757019 618.051086,463.413269 
z"/>
<path fill="#000000" opacity="1.000000" stroke="none" 
	d="
M529.618042,610.834106 
	C540.296692,612.628235 550.141785,615.533325 559.179077,620.762268 
	C567.727600,625.708252 570.713135,631.978638 569.265686,641.605713 
	C568.119812,649.227234 559.930359,654.117615 551.748352,651.936646 
	C549.843506,651.428833 547.901978,650.679932 546.266846,649.602661 
	C538.292480,644.348450 529.576660,641.617859 520.063599,640.936584 
	C508.653625,640.119507 497.864410,642.023682 487.949066,647.775818 
	C483.258545,650.496887 478.657593,652.819763 472.993011,652.392944 
	C467.779694,652.000244 464.194794,649.474426 462.158569,644.836487 
	C458.309723,636.070068 460.906036,626.945740 469.010162,621.774719 
	C479.582947,615.028442 491.334656,611.849854 503.779694,610.551147 
	C512.299805,609.662048 520.714294,610.380798 529.618042,610.834106 
z"/>
<path fill="#000000" opacity="1.000000" stroke="none" 
	d="
M463.208557,509.328369 
	C465.342072,529.494690 456.473785,542.810059 438.570953,546.836365 
	C421.748077,550.619873 403.855225,537.362732 402.642365,520.216248 
	C401.381897,502.396759 411.145905,488.987610 428.223297,486.004883 
	C442.156311,483.571320 458.143951,491.134003 463.208557,509.328369 
z"/>
<path fill="#000000" opacity="1.000000" stroke="none" 
	d="
M622.744812,498.910950 
	C626.269409,516.651184 614.424316,525.031494 603.094849,525.336365 
	C593.984680,525.581543 587.423706,521.056519 584.448547,512.549622 
	C581.709412,504.717529 584.376404,496.664825 591.455383,491.393311 
	C603.874939,482.144867 617.351196,485.231476 622.744812,498.910950 
z"/>
</svg>