<svg xmlns="http://www.w3.org/2000/svg" width="570" height="725" fill="none">
  <g clip-path="url(#a)">
    <path fill="#fff" d="M0 0h570v725H0z"/>
    <path fill="#000" d="M569 708c1 7-1 13-9 16H10c-8-2-9-8-10-14l1-15 1-4 1-10 1-3 7-25c5-15 14-29 26-40 14-12 30-20 48-25l9-3-1-2a79 79 0 0 1-22-45l-3-17a1267 1267 0 0 1 2-48l1-5v-1l5-23 1-4v-1l1-3v-1l1-4 1-2v-1l1-5 3-12 2-9v-1l1-4v-1l1-5 2-11v-1l2-11v-1l1-6 1-2v-5l2-16v-8l-31-12-35-17-5-4-8-6-5-5c-6-8-11-17-8-27l5-12 4-4 2-2 2-2c11-8 23-14 35-18 21-6 41-12 62-16 14-4 28-5 43-7l7-5 8-12c13-19 25-37 39-55a1050 1050 0 0 1 76-89c11-12 24-21 38-30 17-10 32-8 47 3 12 9 23 21 35 31l32 31c11 8 23 15 37 16 6 2 9 6 10 11-3 9-10 11-18 13l-4 1h-5l-32-1h-2l-7-1-23-4 6 15 25 79c2 4 4 6 9 7l23 6 46 15 2 1h1l1 1h1l2 1 1 1h1l2 1 5 3 25 17c4 6 9 11 12 17 6 12 0 26-12 35l-7 4-19 11c-12 6-25 10-37 15-4 1-6 3-5 6l6 47c4 20 10 40 13 59l7 45 1 4v28c-3 23-10 44-27 59l30 13a105 105 0 0 1 54 64l1 2 1 4 1 4 1 5v3l1 2v4l1 1 1 6 1 16ZM235 535v-1l-1-1-1-1-2-1-5-4-8-6-1-1v-1l-3-2v15l-1 14-5 15h-1l-2 4-1 1-2 1-1 2-1 1-1 1-1 1-1 2-12 6-21 9a114 114 0 0 0 64 58h2v1l5 1 1 1 5 1 1 1 3 1c13 3 26 6 40 5l27-1a135 135 0 0 0 86-52l10-16-4-2-30-15c-5-4-9-10-14-16l-3-11-1-27h-2a47 47 0 0 1-4 6h-1l-1 1-2 1v1l-1 1h-1v1h-1l-10 8-31 15-8 1c-11 0-22 0-32-3v-1h-3v-1l-2-1c-6-3-11-5-16-9l-2-1h-1v-1h-2v-1h-1Zm-12-40v1l1 1h1l1 1v1a628 628 0 0 1 23 17v1l16 7 15 4c11 1 22 0 32-7h1l10-5 15-11c8-6 15-12 13-24l1-8v-9a181 181 0 0 1 1-11v-7l2-25c0-2 0-6 2-7 6-4 5-11 6-17v-17l-7 2a494 494 0 0 1-16 0l-15-4c-20-8-33-30-31-52l4-21h1v-2h1v-3l10-11 1-1 1-1 14-9c11-5 22-5 35-3l2-3-2-12-9-11-1-1v-1l-3-4-18-15v-1h-2l-3-2c-9-6-16-12-27-14h-4l-23 23-6 7-1 1h-1v1h-1l-6 5v1l-1 1-1 1-1 1-1 1-1 1-1 1h-1l-1 1-3 2-7 6-23 18-4 2 1 1a294 294 0 0 1 4 1l25 5 2 2 4 2 3 2 1 1 1 1 1 2c-1 8-5 11-13 9l-3-1-13-3v-1l-9-2-30-1-20 11c-4 2-5 5-5 9l2 25 5 32 1 3v3c5 25 13 48 25 71a171 171 0 0 0 28 37v1h1v1h1Zm164-128v1h-1c-6 3-8 7-7 15v13l7-5 16-13c8-6 6-15 8-24l-11 2-5 3-5 5-1 3h-1Zm35 21-1 5v7l4-2c10-6 16-15 21-25 4-7 5-15 9-23v-27l-2-8c-3-6-9-8-15-7-3 1-6 6-6 11v12h2c3-1 7-2 9-1 2 2 2 7 2 10 0 2-2 3-3 5l-6 8-8 23-2 1-1 2v1h-1l-1 8h-1Zm-48 79 1-2c14-20 22-41 27-64l-24 16c-3 2-5 6-6 10l-1 10v13l-1 1v21l3-5h1Zm4-118c6-9 8-19 5-29a36 36 0 0 0-68-6c-6 14-3 31 9 41 15 14 40 13 54-6Zm-259 4c5 18 13 35 32 46-1-9-1-17-6-24-3-3-6-7-6-10-2-9-5-17-10-25-2-3-1-7 2-9 3-3 6-2 9-1l3 2-2-16c-1-8-8-11-14-7-5 2-8 7-9 12-2 11-2 21 1 32Zm335 198v-21c-5 16-10 32-20 46l14 3 6-28Zm-333 13 4 15 8-2c5-1 6-2 3-7-7-11-12-23-14-36l-1-2h-2l2 32Zm282-225c3-2 7-3 7-5 2-5 3-12 0-18l-4 1c-4 1-6 2-4 7v10l1 5Zm-23-54 12 13c3 3 5 3 9-1l-22-15-1 1 2 2Z"/>
    <path fill="#000" d="m243 345-7-3-6-4c-5 14-11 18-23 14h-1l-2-1-7-14c-5 0-9 8-17 4l-1-1-1-1-1-2v-5l2-4 13-8 2-1 10-2c15-3 28 2 41 8l2 4 4 8c1 5-3 8-8 8Zm67 69-2 1-2 1-6 2h-1l-2 1h-2l-3 1-20-1-2-1-2-1h-1l-3-1-1-1-2-1-2-1-5-9c-1-7 5-10 12-8l20 5c6 0 12-2 17-4 7-3 10-3 13 2 2 4 1 9-4 13l-2 2Zm49-102c7 5 10 12 9 20-2 9-9 15-17 16-9 1-16-2-20-10-4-7-3-17 3-23s16-9 25-3Zm-7 22c2-3 3-6-1-8h-6c-1 1-2 4-1 6 1 3 4 4 8 2ZM235 456l-1-1-1-1-1-2v-5c2-3 5-6 9-5 7 2 14-1 20-3s12-1 18 1h10l6-2h1l18 3 13 1 8 2 2 3c0 8-4 12-14 12l-17-1-10 2c-6 2-13 3-19 0-9-3-17-1-26-1l-14-2h-1l-1-1Zm24 27c-2-4-2-8 1-10s7-2 9-1c12 4 23 4 34 0 4-2 8-2 10 2s1 8-2 11c-9 8-20 9-31 7-8 0-15-3-21-9Z"/>
  </g>
  <defs>
    <clipPath id="a">
      <path fill="#fff" d="M0 0h570v725H0z"/>
    </clipPath>
  </defs>
</svg>
